<svg width="90" height="72" viewBox="0 0 90 72" fill="none" xmlns="http://www.w3.org/2000/svg">
<path d="M76.21 0C68.7974 0 62.7597 6.06 62.7597 13.5C62.7597 20.94 68.7974 27 76.21 27C83.6227 27 89.6604 20.94 89.6604 13.5C89.6604 6.06 83.6227 0 76.21 0ZM76.21 3C82.0086 3 86.6714 7.68 86.6714 13.5C86.6714 19.32 82.0086 24 76.21 24C70.4114 24 65.7487 19.32 65.7487 13.5C65.7487 7.68 70.4114 3 76.21 3ZM76.21 6C75.3821 6 74.7156 6.669 74.7156 7.5V12H70.2321C69.4042 12 68.7376 12.669 68.7376 13.5C68.7376 14.331 69.4042 15 70.2321 15H74.7156V19.5C74.7156 20.331 75.3821 21 76.21 21C77.038 21 77.7045 20.331 77.7045 19.5V15H82.188C83.0159 15 83.6824 14.331 83.6824 13.5C83.6824 12.669 83.0159 12 82.188 12H77.7045V7.5C77.7045 6.669 77.038 6 76.21 6ZM31.3756 39H70.2321C71.06 39 71.7266 39.669 71.7266 40.5C71.7266 41.331 71.06 42 70.2321 42H31.3756C30.5476 42 29.8811 41.331 29.8811 40.5C29.8811 39.669 30.5476 39 31.3756 39ZM28.3866 27H64.2542C65.0821 27 65.7487 27.669 65.7487 28.5C65.7487 29.331 65.0821 30 64.2542 30H28.3866C27.5586 30 26.8921 29.331 26.8921 28.5C26.8921 27.669 27.5586 27 28.3866 27ZM64.2542 57C60.1443 57 56.7818 60.375 56.7818 64.5C56.7818 68.625 60.1443 72 64.2542 72C68.364 72 71.7266 68.625 71.7266 64.5C71.7266 60.375 68.364 57 64.2542 57ZM64.2542 60C66.747 60 68.7376 61.998 68.7376 64.5C68.7376 67.002 66.747 69 64.2542 69C61.7614 69 59.7707 67.002 59.7707 64.5C59.7707 61.998 61.7614 60 64.2542 60ZM34.3645 57C30.2547 57 26.8921 60.375 26.8921 64.5C26.8921 68.625 30.2547 72 34.3645 72C38.4743 72 41.8369 68.625 41.8369 64.5C41.8369 60.375 38.4743 57 34.3645 57ZM34.3645 60C36.8573 60 38.848 61.998 38.848 64.5C38.848 67.002 36.8573 69 34.3645 69C31.8717 69 29.8811 67.002 29.8811 64.5C29.8811 61.998 31.8717 60 34.3645 60ZM1.50981 3C-0.492795 3 -0.513718 6 1.50981 6H12.2462C12.4674 7.065 14.1591 15.165 16.1737 24.69C17.2437 29.748 18.3377 34.908 19.2164 38.988C20.0922 43.068 20.7259 45.969 20.974 46.887C21.3685 48.369 21.7391 50.052 22.8271 51.519C23.9091 52.983 25.8161 53.997 28.3866 53.997H70.2082C72.7787 53.997 74.6857 52.983 75.7736 51.519C76.8586 50.049 77.2263 48.369 77.6268 46.884C77.8868 45.888 78.2963 43.575 78.8523 40.674C79.3993 37.764 80.0479 34.395 80.6457 31.833C81.1388 29.994 78.0871 29.193 77.7404 31.155C77.1247 33.807 76.4641 37.191 75.9111 40.107C75.3582 43.026 74.874 45.603 74.7395 46.107C74.333 47.625 73.9534 48.942 73.3735 49.725C72.7936 50.511 72.1181 50.997 70.2112 50.997H28.3866C26.4796 50.997 25.8041 50.511 25.2183 49.725C24.6414 48.945 24.2618 47.625 23.8553 46.11C23.7059 45.531 23.0184 42.429 22.1397 38.355C21.2639 34.281 20.1669 29.127 19.0999 24.063C16.9598 13.944 14.9153 4.191 14.9153 4.191C14.7719 3.501 14.1621 3.003 13.4507 3.003L1.50981 3ZM25.4036 15C23.4159 15 23.4399 18 25.4036 18H55.2693C57.2779 18 57.2331 15 55.2693 15H25.4036Z" fill="#E1E1E1"/>
</svg>
